<svg width="150" height="150" viewBox="0 0 150 150" fill="none" xmlns="http://www.w3.org/2000/svg">
<g clip-path="url(#clip0_1789_47)">
<rect x="56.25" y="53.5714" width="80.3571" height="13.3929" rx="6.69643" fill="#FFF"/>
<rect x="104.465" y="72.3214" width="32.1429" height="13.3929" rx="6.69643" fill="#FFF"/>
<path fill-rule="evenodd" clip-rule="evenodd" d="M45.5354 25.4464C45.5354 21.7481 42.5373 18.75 38.839 18.75C35.1407 18.75 32.1426 21.7481 32.1426 25.4464V72.3214V72.9399C32.1426 79.995 37.8619 85.7143 44.917 85.7143H92.4104C96.1088 85.7143 99.1069 82.7162 99.1069 79.0179C99.1069 75.3195 96.1088 72.3214 92.4104 72.3214H58.9283C51.5316 72.3214 45.5354 66.3252 45.5354 58.9286V25.4464Z" fill="#FFF"/>
<path fill-rule="evenodd" clip-rule="evenodd" d="M137 98C137 94.134 133.866 91 130 91H123.036C123.016 91 123 91.016 123 91.0357C123 91.0554 122.984 91.0714 122.964 91.0714H62.9464C59.2481 91.0714 56.25 94.0695 56.25 97.7678C56.25 101.466 59.2481 104.464 62.9464 104.464H116.304C120.002 104.464 123 107.462 123 111.161C123 114.859 120.002 117.857 116.304 117.857H76.3393C72.641 117.857 69.6429 120.855 69.6429 124.554C69.6429 128.252 72.6409 131.25 76.3393 131.25H123.214C123.759 131.25 124.297 131.217 124.825 131.154C125.479 131.076 126.135 131 126.793 131C132.43 131 137 126.43 137 120.793V98Z" fill="#FFF"/>
<rect x="13.3926" y="18.75" width="13.3929" height="85.7143" rx="6.69643" fill="#FFF"/>
<circle cx="37.5003" cy="117.857" r="13.3929" fill="#FFF"/>
<circle cx="121.502" cy="33.1097" r="11.0586" stroke="#FFF" stroke-width="6.60216"/>
</g>
<defs>
<clipPath id="clip0_1789_47">
<rect width="150" height="150" fill="white"/>
</clipPath>
</defs>
</svg>
