<svg width="70" height="66" viewBox="0 0 70 66" fill="none" xmlns="http://www.w3.org/2000/svg">
<path d="M47.8754 19.9582L62.925 23.5882L67.3084 38.4388L56.6423 49.6593L41.5927 46.0293L37.2093 31.1787L47.8754 19.9582Z" fill="black"/>
<path d="M62.925 23.5882L67.3084 38.4388L56.6423 49.6593L41.5927 46.0293L37.2093 31.1787L52.2589 34.8088L62.925 23.5882Z" fill="white"/>
<path d="M41.5927 46.0293L56.6423 49.6593L52.2589 34.8088L37.2093 31.1787L41.5927 46.0293Z" fill="black"/>
<path d="M62.7745 23.6326L52.2956 34.6562L47.9891 20.0663L62.7745 23.6326ZM67.2204 38.4176L56.679 49.5068L52.3725 34.9169L52.3469 34.83L62.8882 23.7408L67.2204 38.4176ZM52.1964 34.8744L56.5286 49.5512L41.6551 45.9636L37.323 31.2868L52.1964 34.8744ZM37.3597 31.1343L47.8387 20.1107L52.1452 34.7006L37.3597 31.1343Z" stroke="black" stroke-width="0.156882"/>
<path d="M18.0814 24.2539L30.836 31.6195V46.3508L18.0814 53.7164L5.3269 46.3508L5.3269 31.6195L18.0814 24.2539Z" fill="black"/>
<path d="M30.836 31.6195V46.3508L18.0814 53.7164L5.3269 46.3508L5.3269 31.6195L18.0814 38.9852L30.836 31.6195Z" fill="white"/>
<path d="M30.836 46.3508V31.6195L18.0814 38.9852V53.7164L30.836 46.3508Z" fill="black"/>
<path d="M5.48376 31.6195L18.003 24.3898V38.8493L5.48376 31.6195ZM18.1599 24.3898L30.6791 31.6195L18.1599 38.8493V24.3898ZM18.1599 39.0305L30.7576 31.7554V46.3055L18.1599 53.5806V39.0305ZM18.003 39.121V53.5806L5.40535 46.3055L5.40535 31.7554L18.003 39.0305V39.121Z" stroke="black" stroke-width="0.156882"/>
<path d="M36.5881 32.1613L51.6376 35.7914L56.0211 50.6419L45.3549 61.8624L30.3054 58.2324L25.9219 43.3818L36.5881 32.1613Z" fill="black"/>
<path d="M51.6376 35.7914L56.0211 50.6419L45.3549 61.8624L30.3054 58.2324L25.9219 43.3818L40.9715 47.0119L51.6376 35.7914Z" fill="white"/>
<path d="M50.6447 36.0844L41.2141 46.0052L37.3385 32.8749L50.6447 36.0844ZM30.7173 57.7992L26.6724 44.0954L40.5596 47.4451L44.6045 61.1489L30.7173 57.7992ZM40.2211 46.2983L26.9148 43.0888L36.3454 33.168L40.2211 46.2983ZM41.5526 47.152L51.395 36.798L55.4399 50.5018L45.5976 60.8558L41.5526 47.152Z" stroke="black" stroke-width="1.03542"/>
<path d="M43.1044 3.79558L58.154 7.42563L62.5374 22.2762L51.8713 33.4967L36.8217 29.8667L32.4383 15.0161L43.1044 3.79558Z" fill="white"/>
<path d="M58.154 7.42563L62.5374 22.2762L51.8713 33.4967L36.8217 29.8667L32.4383 15.0161L47.4879 18.6462L58.154 7.42563Z" fill="white"/>
<path d="M36.8217 29.8667L51.8713 33.4967L47.4879 18.6462L32.4383 15.0161L36.8217 29.8667Z" fill="black"/>
<path d="M57.4018 7.64765L47.3596 18.2118L33.1905 14.7941L43.2326 4.22996L57.4018 7.64765ZM62.0972 22.1701L52.0551 32.7341L47.9281 18.7523L57.9702 8.18827L62.0972 22.1701ZM33.0068 15.5567L47.1758 18.9743L51.3028 32.9561L37.1338 29.5385L33.0068 15.5567Z" stroke="black" stroke-width="0.784412"/>
<path d="M18.0814 8.00098L30.836 15.3666V30.0979L18.0814 37.4635L5.3269 30.0979L5.3269 22.7322V15.3666L18.0814 8.00098Z" fill="white"/>
<path d="M30.836 15.3666V30.0979L18.0814 37.4635L5.3269 30.0979L5.3269 22.7322V15.3666L18.0814 22.7322L30.836 15.3666Z" fill="white"/>
<path d="M30.836 30.0979V15.3666L18.0814 22.7322V37.4635L30.836 30.0979Z" fill="black"/>
<path d="M5.95432 15.3666L18.0814 8.3633L30.2086 15.3666L18.0814 22.3699L5.95432 15.3666ZM30.5222 15.9101V29.9167L18.3952 36.92V22.9134L30.5222 15.9101ZM17.7677 22.9134V36.92L5.64067 29.9167L5.64067 22.7322V15.9101L17.7677 22.9134Z" stroke="black" stroke-width="0.62753"/>
<path d="M31.7503 15.3527L45.5286 20.5574L47.9123 35.0945L36.5176 44.4269L22.7393 39.2222L20.3557 24.6851L31.7503 15.3527Z" fill="white"/>
<path d="M45.5286 20.5574L47.9123 35.0945L36.5176 44.4269L22.7393 39.2222L20.3557 24.6851L34.134 29.8898L45.5286 20.5574Z" fill="white"/>
<path d="M45.5286 20.5574L31.7503 15.3527L20.3557 24.6851L34.134 29.8898L45.5286 20.5574Z" fill="white"/>
<path d="M45.5286 20.5574L31.7503 15.3527L20.3557 24.6851M45.5286 20.5574L47.9123 35.0945L36.5176 44.4269M45.5286 20.5574L34.134 29.8898M36.5176 44.4269L22.7393 39.2222L20.3557 24.6851M36.5176 44.4269L34.134 29.8898M20.3557 24.6851L34.134 29.8898" stroke="black" stroke-width="2.85962"/>
</svg>
